/* XPM */
static char *_5afa908f0ae4a08d6909a79c2f428c2yPPGSWGGW1E3IIvR[] = {
/* columns rows colors chars-per-pixel */
"100 100 20 1 ",
"  c black",
". c gray10",
"X c #27170D",
"o c #001E28",
"O c gray18",
"+ c #452918",
"@ c #5A3722",
"# c #003244",
"$ c #00425A",
"% c #74614D",
"& c #A16331",
"* c #BC7236",
"= c #977E64",
"- c #DBA916",
"; c #E78E47",
": c #D29E6A",
"> c #F1AD77",
", c gray",
"< c #C7A684",
"1 c #F1C9A0",
/* pixels */
"===<<<<<<<<<<<<<<<<<===<<<<<<<<<<<<                              ===<<<<<<<<<<<<===<<<<<<<<<<<<<<<<<",
"===<<<<<<<<<<<<<<<<<===<<<<<<<<<<<<                              ===<<<<<<<<<<<<===<<<<<<<<<<<<<<<<<",
"===<<<<<<<<<<<<<<<<<===<<<<<<<<<<<<                              ===<<<<<<<<<<<<===<<<<<<<<<<<<<<<<<",
"===<<<<<<<<<<<<<<<<<===<<<<<<<<<      $$$$$$$$$$$$$$$$$$$$$$$$$$$      <<<<<<<<<===<<<<<<<<<<<<<<<<<",
"===<<<<<<<<<<<<<<<<<===<<<<<<<<<      $$$$$$$$$$$$$$$$$$$$$$$$$$$      <<<<<<<<<===<<<<<<<<<<<<<<<<<",
"===<<<<<<<<<<<<<<<<<===<<<<<<<<<      $$$$$$$$$$$$$$$$$$$$$$$$$$$      <<<<<<<<<===<<<<<<<<<<<<<<<<<",
"===<<<<<<<<<<<<<<<<<===<<<         $$$$$$$$$############------######   <<<<<<<<<===<<<<<<<<<<<<<<<<<",
"===<<<<<<<<<<<<<<<<<===<<<         $$$$$$$$$############------######   <<<<<<<<<===<<<<<<<<<<<<<<<<<",
"===<<<<<<<<<<<<<<<<<===<<<         $$$$$$$$$oooooooooooo------oooooo   <<<<<<<<<===<<<<<<<<<<<<<<<<<",
"===<<<<<<<<<<<<<<<<<      ooooooooo#########                        <<<<<<<<<<<<===<<<<<<<<<<<<<<<<<",
"===<<<<<<<<<<<<<<<<<      oooooooooo########                        <<<<<<<<<<<<===<<<<<<<<<<<<<<<<<",
"===<<<<<<<<<<<<<<<<<      oooooooooooooooooo                        <<<<<<<<<<<<===<<<<<<<<<<<<<<<<<",
"===<<<<<<<<<<<<<<<<<   oooooooooooo                                    <<<<<<<<<===<<<<<<<<<<<<<<<<<",
"===<<<<<<<<<<<<<<<<<   oooooooooooo                                    <<<<<<<<<===<<<<<<<<<<<<<<<<<",
"===<<<<<<<<<<<<<<<<<   oooooooooooo                                    <<<<<<<<<===<<<<<<<<<<<<<<<<<",
"===<<<<<<<<<<<<<<<<:                        ooo#########$$$$$$$$$###   <<<<<<<<<===<<<<<<<<<<<<<<<<<",
"===<<<<<<<<<<<<<<<<:                        ooo#########$$$$$$$$$###   <<<<<<<<<===<<<<<<<<<<<<<<<<<",
"===<<<<<<<<<<<<<<<<:                        ooo#########$$$$$$$$$###   <<<<<<<<<===<<<<<<<<<<<<<<<<<",
"===<<<<<<<<<<<<<<<::%%%:<<   ooooooooooooooooooooo$$$$$$               <<<<<<<<<===<<<<<<<<<<<<<<<<<",
"===<<<<<<<<<<<<<::::%%%:<<   ooooooooooooooooooooo$$$$$$               <<<<<<<<<===<<<<<<<<<<<<<<<<<",
"===<<<<<<<<<<<::::::%%%::<   ooooooooooooooooooooo$$$$$$               <<<<<<<<<===<<<<<<<<<<<<<<<<<",
"===<<<<<<<<<<<::::::%%%::<<<<                           ******      <<<<<<<<<<<<===<<<<<<<<<<<<<<<<<",
"===========%%%%%==%%%%%::<<<<                           ******      <<<<<<<<<<<<===<<<<<<<<<<<<<<<<<",
"===========%%%%%==%%%%%::<<<<                           ******      <<<<<<<<<<<<===<<<<<<<<<<<<<<<<<",
"===========%%%%%==%%%%%      XXXXXXXXX************************   ===<<<<<<<<<<<<===<<<<<<<<<<<<<<<<<",
"===1111111111:::::::%%%      XX@@@@@@@;;;;;;;;;;;;;;;;;;;;;;;;   ===<<<<<<<<<<<<===<<<<<<<<<<<<<<<<<",
"===11111111111::::::%%%      XX@@@@@@@;;;&&&&&&&&&;;;;;;;&&&&&   ===<<<<<<<<<<<<===<<<<<<<<<<<<<<<<<",
"===11111111111::::::%%%   ;;;***@@@***;;;&&&&&&&&&;;;;;;;&&&&&   ===<<<<<<<<<<<<===<<<<<<<<<<<<<<<<<",
"===<<<<<<<<<<<<<<:::===   ;;;***@@@***;;;&&&&&&&&&;;;;;;;&&&&&   ===<<<<<<<<<<<<===<<<<<<<<<<<<<<<<<",
"===<<<<<<<<<<<<<<:::===   ;;;***@@@***;;;;;;   >>>>>>>>>>>>>     ===<<<<<<<<<<<<%%%<<<<<<<<<<<<<<<<<",
"===<<<<<<<<<<<<<<<<:===   ************;;;;;;   >>>>>>>>>>>>>     ===<<<<<<<<<<<<%%%<<<<<<<<<<<<<<<<<",
"===<<<<<<<<<<<<<<<<:===   ************;;;;;;   >>>>>>>>>>>>>     ===<<<<<<<<<<<<%%%<<<<<<<<<<<<<<<<<",
"===<<<<<<<<<<<<<<<<:===   *************;;>>>>>>>>>>>>>>>>>>>>>   ===<<<<<<<<<<<<===<<<<<<<<<<<<<<<<<",
"===<<<<<<<<<<<<<<<<:===<<<   X@@@@@****;;>>>>>>>>>>>&&&&&>>>>>   ===<<<<<<<<<<<:===<<<<<<<<<<<<<<<<<",
"===<<<<<<<<<<<<<<<<<===<<<   X@@@@@****;;>>>>>>>>>>>&&&&&>>>>>   ===<<<<<<<<<<<:===<<<<<<<<<<<<<<<<<",
"===<<<<<<<<<<<<<<<<<===<<<   X@@@@@****;;>>>>>>>>>>>&&&&&>>>>>   ===<<<<<<<<<<<:%%%:<<<<<<<<<<<<<<==",
"===<<<<<<<<<<<<<<<<<===<<<   XXXXXX****;;>>>>>>>>>>>;;;;;>>>>>   ===<<<<<<<<<<<:%%%::<<<<<<<<<<=====",
"===<<<<<<<<<<<<<<<<<===<<<<<<      ****;;>>>>>>>>>>>>>>;;>>>>>   ===<<<<<<<<<<<:%%%:::<<<<<<========",
"===<<<<<<<<<<<<<<<<<===<<<<<<      ****;;>>>>>>>>>>>>>>>>>>>>>   ===<<<<<<<<<<<:%%%:::<<<=========11",
"===<<<<<<<<<<<<<<<<<===<<<<<<      ****;;>>>>>>>>>>>>>>>>>>>>>   ===<<<<<<<<<<::%%%:::%%=======11111",
"===<<<<<<<<<<<<<<<<<===      ooo      *;;;;;>>>>>      >>>>      ===<<<<<<<<<<::%%%%%%%%====11111111",
"===<<<<<<<<<<<<<<<<<===      ooo      *;;;;;>>>>>      >>>>      ===<<<<<<<<<<::%%%%%%%%=111111111<<",
"===<<<<<<<<<<<<<<<<<===      ooo      ***;;;>>>>>      >>>>      ===<<<<<<<<<<::%%%%%%:::111111<<<<<",
"===<<<<<<<<<<<<<<<<<      oooooooooooo   ;;;;;;>>;;;;;;>>>>   ###   <<<<<<<<<<::===:::::1111<<<<<<<<",
"===<<<<<<<<<<<<<<<<<      ooo#########   ;;;;;;>>>>>>>>>>>>   ###   <<<<<<<<<<<:%%%:::::1<<<<<<<<<<<",
"===<<<<<<<<<<<<<<<<<      ooo#########   ;;;;;;>>>>>>>>>>>>   ###   <<<<<<<<<<<:%%%:::::<<<<<<<<<<<<",
"===<<<<<<<<<<<<<<      ------###$$$$$####                     ##-   <<<<<<<<<<<<%%%:::<<<<<<<<<<<<<<",
"===<<<<<<<<<<<<<<      ------###$$$$$$$$$                     ##-   <<<<<<<<<<<<===:::<<<<<<<<<<<<<<",
"===<<<<<<<<<<<<<<      ------###$$$$$$$$$                     ##-   <<<<<<<<<<<<===111<<<<<<<<<<<<<<",
"===<<<<<<<<<<<<<<   ooo#########$$$------###########################   <<<<<<<<<===111<<<<<<<<<<<<<<",
"===<<<<<<<<<<<<<<   ooo#########$$$------$$$$$$$$$$$$$$$$$$###$$$$$$   <<<<<<<<<===111<<<<<<<<<<<<<<",
"===<<<<<<<<<<<<<<   ooo#########$$$------$$$$$$$$$$$$$$$$$$###$$$$$$   <<<<<<<<<===<<<<<<<<<<<<<<<<<",
"===<<<<<<<<<<<<<<   *;;>>>>>>   ###---                  ###   $$$$$$   <<<<<<<<<===<<<<<<<<<<<<<<<<<",
"===<<<<<<<<<<<<<<   *;;>>>>>>   ###---                  ###   $$$$$$   <<<<<<<<<===<<<<<<<<<<<<<<<<<",
"===<<<<<<<<<<<<<<   *;;>>>>>>   ###---                  ###   $$$$$$   <<<<<<<<<===<<<<<<<<<<<<<<<<<",
"===<<<<<<<<<<<<<<   *;;>>>>>>   ###   ...OOOOOO,,,,,,...               <<<<<<<<<===<<<<<<<<<<<<<<<<<",
"===<<<<<<<<<<<<<<   *;;>>>>>>   ###   ...OOOOOO,,,,,,...               <<<<<<<<<===<<<<<<<<<<<<<<<<<",
"===<<<<<<<<<<<<<<   *;;>>>>>>   ###   ...OOOOOO,,,,,,...               <<<<<<<<<===<<<<<<<<<<<<<<<<<",
"===<<<<<<<<<<<<<<   *;;;;;>>>>>>      .........OOOOOOOOOOOOOOO,,,...             ==<<<<<<<<<<<<<<<<<",
"===<<<<<<<<<<<<<<   *;;;;;>>>>>>      .........OOOOOOOOOOOOOOO,,,...             ==<<<<<<<<<<<<<<<<<",
"===<<<<<<<<<<<<<<   ****;;>>>>>>      .........OOOOOOOOOOOOOOO,,,...             ==<<<<<<<<<<<<<<<<<",
"===<<<<<<<<<<<<<<<<<   *;;;;;;;;>>>>>>   .........OOOOOO......OOOOOOOOOOOOOOOOOOO            <<<<<<<",
"===<<<<<<<<<<<<<<<<<   *;;;;;;;;>>>>>>   .........OOOOOO......OOOOOOOOOOOOOOOOOOO            <<<<<<<",
"===<<<<<<<<<<<<<<<<<   ****;;;;;>>>>>>   .........,,,OOO......,,,,,,,,OOOOOOOOOOO            <<<<<<<",
"===<<<<<<<<<<<<<<<<<===         ;;;>>>                     ...................OOOOOOOOOOOOOOO   <<<<",
"===<<<<<<<<<<<<<<<<<===         ;;;>>>                     ...................OOOOOOOOOOOOOOO   <<<<",
"===<<<<<<<<<<<<<<<<<===         ;;;>>>                     ...................,,,,,,,,,,,,,,,   <<<<",
"===<<<<<<<<<<<<<<<<<===XXX++++++      ooooooooooooooooooooo          ;;;>>>......   ......      <<<<",
"===<<<<<<<<<<<<<<<<<%%%XXX++++++      ####################o          ;;;>>>......   ......      <<<<",
"===<<<<<<<<<<<<<<<<<%%%XXX++++++      ####################o          ;;;>>>......   ......      <<<<",
"===<<<<<<<<<<<<<<      XXX++++++                                   =<;;;;;;      ==<      <<<<<<<<<<",
"===<<<<<<<<<<<<<<      XXX++++++                                   =<*;;;;;      ==<      <<<<<<<<<<",
"===<<<<<<<<<<<<<<      XXX++++++                                   =<******      ==<      <<<<<<<<<<",
"===<<<<<<<<<<<<<<   XXXXXXXXXXXX   ooo##########################   =<      <<<<<===<<<<<<<<<<<<<<<<<",
"===<<<<<<<<<<<<<<   XXXXXXXXXXXX   ooo###$$$$$$$$$$$$$$$$$$$$###   =<      <<<<<===<<<<<<<<<<<<<<<<<",
"===<<<<<<<<<<<<<<   XXXXXXXXXXXX   ooo###$$$$$$$$$$$$$$$$$$$$###   =<      <<<<<===<<<<<<<<<<<<<<<<<",
"===<<<<<<<<<<<<<<   XXXXXX         ###$$$##################$$$$$   =<<<<<<<<<<<<===<<<<<<<<<<<<<<<<<",
"===<<<<<<<<<<<<<<   XXXXXX         ###$$$##################$$$$$   =<<<<<<<<<<<<===<<<<<<<<<<<<<<<<<",
"===<<<<<<<<<<<<<<   XXXXXX         ###$$$####oooooooooooo##$$$$$   =<<<<<<<<<<<<===<<<<<<<<<<<<<<<<<",
"===<<<<<<<<<<<<<<   XXXXXX   o#####$$$###               o##$$$$$   =<<<<<<<<<<<<===<<<<<<<<<<<<<<<<<",
"===<<<<<<<<<<<<<<   XXXXXX   o#####$$$###               o##$$$$$   =<<<<<<<<<<<<===<<<<<<<<<<<<<<<<<",
"===<<<<<<<<<<<<<<   XXXXXX   o#####$$$###               o##$$$$$   =<<<<<<<<<<<<%%%<<<<<<<<<<<<<<<<<",
"===<<<<<<<<<<<<<<<<<         o##$$$$$$###   <<<<<<<<<   o##$$$$$   =<<<<<<<<<<<<%%%<<<<<<<<<<<<<<<<<",
"===<<<<<<<<<<<<<<<<:         o##$$$$$$###   <<<<<<<<<   o##$$$$$   =<<<<<<<<<<<<%%%<<<<<<<<<<<<<<<<<",
"===<<<<<<<<<<<<<<<<:         o##$$$$$$###   <<<<<<<<<   o##$$$$$   =====%%%===%%%%%<<<<<<<<<<<<<<<<<",
"%%%<<<<<<<<<<<<<<<::%%%:::   o##$$$###   =<<<<<<<<<<<   o##$$   ========%%%===%%%%%<<<<<<<<<<<<<<<<<",
"%%%<<<<<<<<<<<<<<<::===:::   o##$$$###   =<<<<<<<<<<<   o##$$   ========%%%===%%%%%<<<<<<<<<<<<<<<<<",
"%%%111<<<<<<<<<<<<::===:::   o##$$$###   =<<<<<<<<<<<   o##$$   <===111111111111%%%<<<<<<<<<<<<<<<<<",
"%%%111<<<<<<<<<<<:::===:::   o##$$$   <===<<<<<<<<<<<   o##$$   <===111111111111%%%<<<<<<<<<<<<<<<<<",
"%%%111<<<<<<<<<<<:::===::<   o##$$$   <===<<<<<<<<<<<   o##$$   <===111111111111%%%<<<<<<<<<<<<<<<<<",
"%%%111<<<<<<<<<<<:::===::<   OOO...   <===<<<<<<<<<<<   ...OO   <===<<<<<<<<<<<<%%%<<<<<<<<<<<<<<<<<",
"%%%111<<<<<<<<<<<:::===:<<   OOO...   <===<<<<<<<<<<<   ...OOOOO      <<<<<<<<<<%%%<<<<<<<<<<<<<<<<<",
"%%%111<<<<<<<<<<<<::===<<<   OOO...   <===<<<<<<<<<<<   ...OOOOO      <<<<<<<<<<%%%<<<<<<<<<<<<<<<<<",
"%%%111<<<<<<<<<<<<::===<<<   OOO...   <===<<<<<<<<<<<<<<   ...OO      <<<<<<<<<<%%%<<<<<<<<<<<<<<<<<",
"%%%111<<<<<<<<<<<<<:===   .........   <===<<<<<<<<<<<<<<   ........   <<<<<<<<<<%%%<<<<<<<<<<<<<<<<<",
"%%%111<<<<<<<<<<<<<:===   .........   <===<<<<<<<<<<<<<<   ........   <<<<<<<<<<%%%<<<<<<<<<<<<<<<<<",
"%%%111<<<<<<<<<<<<<:===   .........   <===<<<<<<<<<<<<<<   ........   <<<<<<<<<<%%%<<<<<<<<<<<<<<<<<",
"%%%111<<<<<<<<<<<<<<===               <===<<<<<<<<<<<<<<              <<<<<<<<<<%%%<<<<<<<<<<<<<<<<<",
"%%%111<<<<<<<<<<<<<<===               <===<<<<<<<<<<<<<<              <<<<<<<<<<%%%<<<<<<<<<<<<<<<<<",
"%%%111<<<<<<<<<<<<<<===               <===<<<<<<<<<<<<<<              <<<<<<<<<<%%%<<<<<<<<<<<<<<<<<"
};
