/* XPM */
static char *bb409b5d1d644dd687934026ce8010bd5NlwHNzxdVSXI3hV[] = {
/* columns rows colors chars-per-pixel */
"100 100 63 1 ",
"  c gray2",
". c #090909",
"X c gray5",
"o c gray7",
"O c gray8",
"+ c #1B1B1B",
"@ c gray11",
"# c gray13",
"$ c gray14",
"% c gray17",
"& c #2F2F2F",
"* c gray20",
"= c #373737",
"- c #393939",
"; c #3E3E3E",
": c #414141",
"> c gray27",
", c #494949",
"< c gray30",
"1 c #535353",
"2 c gray34",
"3 c #5B5B5B",
"4 c gray37",
"5 c gray39",
"6 c #646464",
"7 c #6A6A6A",
"8 c #6D6D6D",
"9 c gray45",
"0 c #767676",
"q c #7B7B7B",
"w c gray50",
"e c gray51",
"r c #848484",
"t c #888888",
"y c #8D8D8D",
"u c #929292",
"i c gray59",
"p c gray60",
"a c #9D9D9D",
"s c gray63",
"d c #A7A7A7",
"f c #AAAAAA",
"g c gray68",
"h c #B2B2B2",
"j c gray71",
"k c #B9B9B9",
"l c #BCBCBC",
"z c #C1C1C1",
"x c gray77",
"c c #CACACA",
"v c gray80",
"b c #D2D2D2",
"n c #D5D5D5",
"m c #D8D8D8",
"M c #DDDDDD",
"N c #E1E1E1",
"B c #E4E4E4",
"V c #EAEAEA",
"C c #EFEFEF",
"Z c gray94",
"A c #F4F4F4",
"S c #FBFBFB",
"D c gray99",
/* pixels */
"eeeeeeeerrrrttyyuiippassddfgghhjjkklllzzxxccvvbnmmMMNBVCCZASSDDDDDDDDDDDDDDDDDDDDDDDDDDSSSAAAZZZZCCC",
"eeeeeeeeerrrrttyyuuippassddffghhhjjkkllzzxxcvvbnmmMNBBVCZAASDDDDDDDDDDDDDDDDDDDDDDDDDDDDSSSAAAAZZZZC",
"reeeeeeeerrrrttyyyuiiipaassddffghhjjkkllzkzccvbnmmMNBVCCZABSDDDDDDDDDDDDDDDDDDDDDDDDDDDDDSSSSAAAAZZZ",
"rreeeeeeeeerrrtttyyuuiippaassdffgghhjkkllqhxcvbnmMNNBVCZZkdADDDDDDDDDDDDDDDDDDDDDDDDDDDDDDSSSSAAAAZZ",
"rrrreeeeeeeerrrrttyyyuuipppassddffghhjkklssxccvcxxcvmBVZANjSDDDDDDDDDDDDDDDDDDDDDDDDDDDDDDDSSSSAAAAA",
"rrrrrreeeeeeerrrrrttyyyuuiipaassdffghhjjdahsahxbbbvvczkffxbmSDDDDDDDDDDDDDDDDDDDDDDCSSSAAZCCVVASAAAA",
"rrrrreeeeeeeeeeerrrrtttyuuiippaasddfsusfznnmmmmmnnnnnbbbvcxlhlvVDDDDDDDDDDDDDDDDDDDfDDSACVNMmnCAAAAA",
"trrrrreeeeeeeeeeeerrrrttyyuuiippaptijvbnnnnnnbbbnnnmmMMMMMMmnvxljnVDDDDDDDDDDDDDDDSdDDDSZCBNMmVAAAAA",
"ttrrreeeeeewwwwewweeerrrtrqpuuittszcvbbbvvcccvbnnmMNBVVCCZZZZCVNnczxNSDDDlDDDDDDDDDdDDDz5pvbNMVAAAAA",
"ttrrreeeeewwwwwwwwwweeerrw79twtdlxcccxzllllu75542113589qsVDDDDDSSCBncxNDA7bDDDDDDDSdmVz:>jCjmNVZAZZZ",
"tttrrreeeewwwwwwqqqwwwweeeqqqahkllljhha91=-,149wwweeeeq62,>4ivSDDDDAVmvvBADDDDDDDDSdkj7=,lV9vNBZZZZZ",
"tttrrreeewwwwwqqqqqqqwwwww9tdghhhfdi3:=<3rpgcmmmmnnbbvcxldpu62<0nDDDDSVmbnZDDDDDDDSskn0*,jntjMNCCCCC",
"ttttrreeewwwqqqqqqq0qqqq90iadddap9>*,8tlbnnmmmmmmmnnbbvcccxxzkuw11dADDDAVnbNDDDDSSAsjMt*,uginMNVVVVV",
"tttrrreewwwwqq0000000097wuippiy7=-1ehcvbnnmbzgap04jhpsfkxvvvvcccjp5,iADDDZMbnZSSSAZshu4&,6t7dnMVVVBB",
"tttrreewwwqqq0000009987rtuuyt8--2rkzxcvvssaijffx,6BlivlkjskhxbbbvxcpwqMNNNMbczNNBBMas7:$<4826vmNBNNN",
"tttreeewwqqq0009999978etttrq:=<egjkzzausfaipfs00>7Vj6kmkhggjlkkNDDDDDDDDDDDDDADBMSSDABmhy9wlMVnMMMMM",
"ttrreeewwqq0000999859errew4&:7pdghgtudtpgbvccgqp,5vd6jVCCCVMklvADDDDDDDDDDDDDADVmVZDDSDSCnBMBVbmmmmm",
"trrreewwqqq009998850eeew0:*<wiadaeyurfxzkjhar86f,2ir7cgscADDSCZZDDDDDDDDDDDDDSDCnmNDDADZMbVMBVvnnnbb",
"rrreewwwqq00988875qeeeq8*;3ryipqrrrgjhdp71-3qq37:<86,apr9,5tCCCCDDDDDDDDDDDDDSDVbcbADADVbcVmNBcbbvvv",
"rreewwwqq00984y65qrreq6&:7rtyw8e0sfrr7>>9flzzd,1:473=3ivbbvcBVVVDDDDDDDDDDDDDSDBckxCDZDmzxBnMNxcccxx",
"eeewwwqq00998625qrreq5&:9err708rair3-5pjlzxxxk;:899090fbnmMMNNBBDDDDDDDDDDDDDSSmxfhMDCSchlMvmMlxxzzz",
"eewwqqq009988759tteq5%>0eew697yye4=4agjlzxxxxzkyhhjlzxcvbnnmMMMNSDDDDDDDDDDDDSAvladvSVZksjvxbmkllllk",
"wwwqq0099988767yyrq6%>qee0679te8;<rafhjklzzzzzltghjklzxccvbnnmmmSDDDDDDDDDDDDSCsiwrgBNBfiglkvnhkjjjj",
"wqq00099888765yytw7&:qrr0760e02=7tiadghkklllzlkrdfhhkllzxccvbbbnADDDDDDDDDDDDSh.X .Xo$:-;<4gxvghhhgg",
"qq00099887764eyye8*;qtr076q90::0ryiasfghjjkklkkesdfghjkllzxccvvvZDDDDDDDDDDDDAz7*$tdjxzyasdkzxfgfffd",
"0009998877658yyr9:=8ytw86ww6*<0wryuiasdfghjjjkjeasdffghjkklzzxxcCSDSSSSDSSSSSZBcj2>kxvnvgghklzsdddss",
"099988777654tyt02&3yyr77ww6-29qertyuipasdfghhjjwipasdfgghjjkllzzVAAAAAAAAAAAZVBbbl,8kxbmcghhjkasaaaa",
"998887766530yyw6&,tyt79ww6=29qweertyyiipssdgghhwuipaasdfgghhjjklNZZZZZZZZZZCCBnvmmg;ikxbmjfgghippppi",
"88777666544rye8;-qyy900e7-20qwwweerrtyuupasdfghqtyuippasddfgghjjmVVVVVCVVVVVVMNvmmMw,gkxbvsdfguiiiuu",
"77776655429qsw3%3yyw08t8:<qwwwwwwwweertyuipsdfg0rtyyuippassdffggnNBBBBBBBBBBNnmbvmmb<9fjxbgasdyyyyyy",
"766655448975r3&:ett77t0<:qwewwwqqqqqwwertyipadf0eertyyuiipaassddcmMMMMMMMMMMmvmbnbnna;adhxciparttttr",
"65554433tygd;>&4rt80q96-0eeewwqq00000qqweryupay1*;4&&&&&*******;kbnnnnnnnnnnbxcvvbbbm35pshxduierrree",
"54443328ywp9##;qee76r4=5eeeewwq009999900qerquyst8270eyyq>0wwwwq%pccvvvvvvvvvclkjbvxccd-yisjktuweeeew",
"44332179r6w=#$>0w69q9<>wreeewq099888888909wy0656r70atwyibljvmnn7izzzxxxxxxxxzhhakxczzc23yidlytdewwwq",
"333212:8723#@&39050pa=8eeeewq099877766768q427eyia90jzxvzitcvlnb8ukkkklllllllkfersxzkkkt:rtifde80qqqq",
"22211<<31152;;3835<72,qeewwq0988766555473,48qetup80hkzxcvcuuMgx8tghhhhhhjjjjgsr1ufzlghz-7etpfq800000",
"2211<,1236*7951,6096;5qwqqq098776554436<,3680wryu79fhklzxccjwxf4edddffffffffdip=eujjsdgq,qeysr899999",
"111<<<5705X+;4986we<$39000988765544335:,246790wet68adghkllzzk9h3qpaaasssssssayi31eafhaay=0qeut789988",
"1<<<,20er:O@#--6i7541,588887665443325:>13456774788qettufhhjjjg070uiiiiippppiury0-qrgduif;50qrp678888",
"1<<,,>>56@@#*:>3slr1w004456554433215>:<1233317q5,,,,5ugfudfffda19ttyyyyyuyyyywr9:6qspyyu6;90wu677888",
"<<<,>>>,:&@%;>:::8=O%,7req533322113<-,<112<39,%%%87%%%>exippapi17errrrrrtrrrr0w82:rtuirr8;890e867777",
"<<<,,><47;#=>>;:13$@*;=-28tyw521<,3;:,<<<,64&&;,<8733,*&3kiyyyt<6wwwwwweweeew9075=60uywwr*789qq56777",
"<<<,,>,,:;$->>:,6>%$::::;*:39pie41>->,<<>63%-,<11873565>&2kyeew,50000qqqqqqq08965=79ee0qe&4780956677",
"<<<,,><,,:#:,>::8*$*:>>::;-=*:4wase2<,,,35%-,,<<,7723466<&5zq09:49999900090097855;38yw89q-<789956667",
"<<<<,,<<,:$,,>:>9&%-:>>>::;;-=*=>6yfdw,,944:>,,,1ys92345414eg76;38888889999986744,>7090895:778046667",
"1<<<,,<<<-=,,>:<8$%;:>>>>>::;;-=*%=<8ii330ew2:,6ujmCm0230e02j54=277778878888766441:6870886-778945667",
"111<,<1<<*;<,>:15$%;>>>,,>>>:::;;=**&->8>15we6250ihxbvwew5:*ep2=166777777777756442;6778773=777845667",
"111<,1111&:<<,>23%&:>,,,,,,,,>>;>=;;--:9#>54931259risdp7,<<%8e1*166667777777655443=6776771*787855677",
"2211<2221&>1<,>32%&:,,<<<<<<<<,:<=>>::,7+*&=<<<12479qq01,<<*4q<*166667777777756443*7876771*788855677",
"22<7<3322&,21<>42%&,<1111111111,1-,<,,23#::;-12228h56762<<1=<8<*166667777777766454*9066781*788843s78",
"3341<4433*,322,51%*<1222223332213;111154$>,>>66660078883<12=:8<*167777777777766555*5876881*889843778",
"443215544*<443<72%*12334444444425:23327w%>;=400qq00qwwq1122*:91*177777888888876665=7987992*899956788",
"444326654=1654283&*24555555666537145446p*,8pbirerrrrrrq9312%<73=278888888888887776-8088903*890067888",
"555436765:<766597&*256677777777572564,,ur6sMbtqrrrtrre26wq,%654=289999999999988775:9q800q5=900q67899",
"6665468771;98788r&*3778888889987831><470hcbf5119rrrr932240e,925=399099000000099885,0w80qq5;0qqq68999",
"7766579885&09887t-=28999000000961>3881;1hf413333294234555:<6466-300000000000q09992<qe00qw<,0qwq78900",
"877768q097&90987e>=<9000qqqq94,<406>:1436x&-46555wd36666>$<7477;4qqqqqqqqqqqqq090>7ww0qwe&3qww079000",
"888777wq09*7q007we:>9qqqqq72,2872>>266673wl=-4777rg4775;$,82888;5qwwwwwwwwwwwwq00;qe00eew&8weeq8900q",
"999886ww09:5wq96qu,:8qq04>1585>,4472888883ez2%:35uk33>%&<8<9998:6wwewwwwwweeewq08;qeqqer8*qwer990qqq",
"0000970684<>ww098s1-25<<4971>268886950099946ja,%$ux%$*<75390099:6eeeeeeeeeeeeew03,er90rr3:werr80qqww",
"00009898711*7wq6686%;2794><58890008987q0000728apr86809716000008,7reerrrrrerrrrw0:9ewqwrr,,errr90qwww",
"qqq0097975=&,0q58qw187,>289900qqqqq7q79qqq00072324422160000qq04<7rrrrrrrrrrrrrw8;er99erw*0errq0qwwwe",
"qqqq083540%%;41;qq81*$188900qqqwwwwq7w89qqqq000994399000qqqq040&7rrrrrrrrrrrrrw<4er90rr6=errtq0qwwee",
"wwqq096324;&=,366qr7%>890qqqwwwwweewq8q98wwqqq00066900qqqqq87q2;8rrtttrtrrrrrrw=wr00qrr>1rrrr00weeee",
"wwwqq009754,671:>71=,,90qqqwwwwweeeeeq70q80qqqqq0770qqqqq070938:8ttttttttttttt62ee89er0=0rrtwwqeerrr",
"wwwqq66reqq,=%-67<569<8qqwwwwweeeeeewww97w098qqqq880qqq978w5699>8ttttttttttttr7qe090er2;rrrr0earrrrr",
"ewwwq83wrrr;+#&58377982qwwwweeeeeeeeeeewq770q9888687877q0438998=8rtrtttttttttreww78eeq=6rrre0e8wrrrr",
"eewww090err8+@*39855w857wwweeeeeeeeweeewwq077693;16;;;-&@$%&%%$@qrrrttttttttttrw889ee3-rrrr0wrqerrrr",
"eeewwq09weee%**3006690020wwwwwwwwwwwewwwwwqq0979rrrrerrrrrrrrrrrttttrrrrttrrrrw077weq-5rrre9erwrrrrr",
"eeewwqq00wq5;2:,90055weq3qwwwwwwwwwwwwwwwwqqq090rrrrrrrrttttrtttttrtrrrrtrrrrrw670ww2-rrrr0werwrrrrt",
"eeeewwqq0953369=400866ee96qwwwwwwwwwwwwwwwqq0090rtrrrrrrtrrrrrttrrrrrrrrrrrrrr077qw8*7eeee9errwrrtrr",
"eeeewwwqq0776803>7q0668ee67qwqwwwwwwwqwwwqqq0980ttttrrrrtrrrtrttrrrrrrrrrrrrrrw50qq,>eeee9werrwrrrrr",
"reeeeewwqq070qqw;30q0469ee58qqwwwwwqqqqqqqqq0980tttttrrtttttrrttrrrrrrrrrrrrrr08003*weeew9werrqerrrr",
"rreeeeewwq080qqwq-4qq0550ee68qqqqqqqqqqqqq000980tttrrrrtrrttrrttreeeeeeeeeeeeeq995=5eeww8wererqerrrr",
"reeeeeeewwq07qqww7>6q08540ww570qqqqqqqqqq0009879rrrrrrrrrrrrrrrreeeeeeeeeeeeeeq86;>ewww90eeeeeqerrrr",
"reeeeeeewwq098qwww2<8008540908600qqqq00000009879rrrrrrrrrrrrrrrreeeeeeeeeeeeee04-=wwwwq8weeeeeqerrrr",
"rreeeeeeewwq080qwww>18008548qw059000000000999879rrrrrrrrrrrrrrrreeeeeewweeeeee4+@=;:,2:,234weeqeerrr",
"eeeeeeeeewwwq070qwww:28098546qww7690000000998869rrrrrrrrrrrrrrrrewwwwwwwwwwwwwq,<24679qeeeeqqwqeeeee",
"eeeeeeeeewwwwq97qqqwq;280984440qw067900009998769erreererrrrrrrrrwwwwwwwwwwwwwwweeeeewqwweee00w0weeee",
"eeeeeeeeewwww8w770qqww:1699954370qw96689999886$*<476--1679eeeeeewwwwwwwwwwwwwqweeewwq0qwwww00q0weeee",
"eeeweeeewwwww858780qqqq>159996344808w06578887709<6u8,w533226eeeewwqqwwwwqqqwwqwwwwwq00qqwww99q0wwwew",
"eeewwwwwwwwwwq0097700qqq1>489884333890qq874455932we6;951,:<<7eeewqqqqqqqqqqqqqqwwwqq090qqqq9900wwwww",
"wwwwwwwwwwwwqqqq0967000qq5;2698873323690000095072ee51855887645weqqqqqqqqqqqqqqqqqqq09990qqq8909qqwww",
"wwwwwwwwwwwqqqqqq0966900009:<3888863232368999889<qw5,u888764<,2qqq000qqqq0qqqqqqq00098900008999qqwww",
"wwwqqqqqqqqqqqqqq0087599900q3:148887733231333582,904:66322<1<1,5q000000000000000000961,>26w60080qqqq",
"wwqqqqqqqqqqqqqqq0098758999009<:2378777642222143,893,4311112444332<:*;4333322133333:<51#5ei6i980qqqq",
"qqqqqqqqqqqqqqqq0009987568999009,:226777776652<<<11<<<1456666554,<&*144444331444454>14:$9ew189800qqq",
"qqqqq0qqqqqqqqq0000099875488999999<:>2357777665544445566666651<;=-46655554224555555,26<&8w0388800000",
"00qq000000000000000099987645888999995,:-221466665555566541<2--:17776666542456666666,243%6082r8790000",
"0000000000000000000099998744358888889997<;>,:->133332,--::;:48877776665333566667776<25>&597<57799990",
"0000000000000000000999999705643578888888889852<,>>>>><14788887777766523549867777776<542=586157789999",
"00990009999999999999999998567654247778888888888888888888777777777643355664677777776<7651<33577789999",
"99999999999999999999999998888776543346777777777777777777777777643235566777777777776<6665556678689999",
"9999999999999999889999998888888776654233467777777767777776652313456667777777777777625555555566688999",
"9999999899898988888888888888888877766554321233344444443321234456667777777777777777765545555556788888",
"8888888888888888888888888888888887777666548444333333333442e56666777777777777777777777777777777888888",
"8888888888888888888888888888888877777777654566555555555664556667777777777777777777777777777777888888",
"8888888888888888888888888888877777777777766666666666666666566777777777777777777777777777777777888888",
"8888887777777777777777777777777777777777777777777777777777777677677777777777777777777777777777777777",
"7777777777777777777777777777777777777777777777777777777777777777677776776677777777776777777777777777"
};
