/* XPM */
static char *_fe6934b780b402aeab73527088cb617N4RsSLmAGt5EXdGy[] = {
/* columns rows colors chars-per-pixel */
"100 100 5 1 ",
"  c #74614D",
". c #977E64",
"X c #D29E6A",
"o c #C7A684",
"O c #F1C9A0",
/* pixels */
"...ooooooooooooooooo...oooooooooooooooo...ooooooooooooooooooooooo...oooooooooooo...ooooooooooooooooo",
"...ooooooooooooooooo...oooooooooooooooo...ooooooooooooooooooooooo...oooooooooooo...ooooooooooooooooo",
"...ooooooooooooooooo...oooooooooooooooo...ooooooooooooooooooooooo...oooooooooooo...ooooooooooooooooo",
"...ooooooooooooooooo...oooooooooooooooo...ooooooooooooooooooooooo...oooooooooooo...ooooooooooooooooo",
"...ooooooooooooooooo...oooooooooooooooo...ooooooooooooooooooooooo...oooooooooooo...ooooooooooooooooo",
"...ooooooooooooooooo...oooooooooooooooo...ooooooooooooooooooooooo...oooooooooooo...ooooooooooooooooo",
"...ooooooooooooooooo...oooooooooooooooo...ooooooooooooooooooooooo...oooooooooooo...ooooooooooooooooo",
"...ooooooooooooooooo...oooooooooooooooo...ooooooooooooooooooooooo...oooooooooooo...ooooooooooooooooo",
"...ooooooooooooooooo...oooooooooooooooo...ooooooooooooooooooooooo...oooooooooooo...ooooooooooooooooo",
"...ooooooooooooooooo...oooooooooooooooo...ooooooooooooooooooooooo...oooooooooooo...ooooooooooooooooo",
"...ooooooooooooooooo...oooooooooooooooo...ooooooooooooooooooooooo...oooooooooooo...ooooooooooooooooo",
"...ooooooooooooooooo...oooooooooooooooo...ooooooooooooooooooooooo...oooooooooooo...ooooooooooooooooo",
"...ooooooooooooooooo...oooooooooooooooo...ooooooooooooooooooooooo...oooooooooooo...ooooooooooooooooo",
"...ooooooooooooooooo...oooooooooooooooo...ooooooooooooooooooooooo...oooooooooooo...ooooooooooooooooo",
"...ooooooooooooooooo...oooooooooooooooo...ooooooooooooooooooooooo...oooooooooooo...ooooooooooooooooo",
"...ooooooooooooooooX...oooooooooooooooo...ooooooooooooooooooooooo...oooooooooooo...ooooooooooooooooo",
"...ooooooooooooooooX...oooooooooooooooo...OOOoooooooooooooooooooo...oooooooooooo...ooooooooooooooooo",
"...ooooooooooooooooX   oooooooooooooooo...OOOoooooooooooooooooooo...oooooooooooo...ooooooooooooooooo",
"...oooooooooooooooXX   Xooooooooooooooo...OOOoooooooooooooooooooo...oooooooooooo...ooooooooooooooooo",
"...oooooooooooooXXXX   Xooooooooooooooo...OOOoooooooooooooooooooo...oooooooooooo...ooooooooooooooooo",
"...oooooooooooXXXXXX   XXoooooooooooooo...OOOoooooooooooooooooooo...oooooooooooo...ooooooooooooooooo",
"...oooooooooooXXXXXX   XXoooooooooooooo...OOOoooooooooooooooooooo...oooooooooooo...ooooooooooooooooo",
"...........     ..     XXoooooooooooooo...OOOoooooooooooooooooooo...oooooooooooo...ooooooooooooooooo",
"...........     ..     XXXooooooooooooo...OOOoooooooooooooooooooo...oooooooooooo...ooooooooooooooooo",
"...........     ..     XXXooooooooooooo...OOOoooooooooooooooooooo...oooooooooooo...ooooooooooooooooo",
"...OOOOOOOOOOXXXXXXX   XXXooooooooooooo...OOOoooooooooooooooooooo...oooooooooooo...ooooooooooooooooo",
"...OOOOOOOOOOOXXXXXX   XXXooooooooooooo...OOOoooooooooooooooooooo...oooooooooooo...ooooooooooooooooo",
"...OOOOOOOOOOOXXXXXX   XXXooooooooooooo   OOOoooooooooooooooooooo...oooooooooooo...ooooooooooooooooo",
"...ooooooooooooooXXX...XXoooooooooooooo   OOOoooooooooooooooooooo...oooooooooooo...ooooooooooooooooo",
"...ooooooooooooooXXX...Xooooooooooooooo   OOOoooooooooooooooooooo...oooooooooooo   ooooooooooooooooo",
"...ooooooooooooooooX...oooooooooooooooo   ooooooooooooooooooooooo...oooooooooooo   ooooooooooooooooo",
"...ooooooooooooooooX...oooooooooooooooo   ooooooooooooooooooooooo...oooooooooooo   ooooooooooooooooo",
"...ooooooooooooooooX...oooooooooooooooo   ooooooooooooooooooooooo...oooooooooooo...ooooooooooooooooo",
"...ooooooooooooooooX...oooooooooooooooo   ooooooooooooooooooooooo...oooooooooooX...ooooooooooooooooo",
"...ooooooooooooooooo...oooooooooooooooo   ooooooooooooooooooooooo...oooooooooooX...ooooooooooooooooo",
"...ooooooooooooooooo...oooooooooooooooo   ooooooooooooooooooooooo...oooooooooooX   Xoooooooooooooo..",
"...ooooooooooooooooo...oooooooooooooooo   ooooooooooooooooooooooo...oooooooooooX   XXoooooooooo.....",
"...ooooooooooooooooo...oooooooooooooooo   ooooooooooooooooooooooo...oooooooooooX   XXXoooooo........",
"...ooooooooooooooooo...oooooooooooooooo   ooooooooooooooooooooooo...oooooooooooX   XXXooo.........OO",
"...ooooooooooooooooo...oooooooooooooooo   ooooooooooooooooooooooo...ooooooooooXX   XXX  .......OOOOO",
"...ooooooooooooooooo...oooooooooooooooo   ooooooooooooooooooooooo...ooooooooooXX        ....OOOOOOOO",
"...ooooooooooooooooo...oooooooooooooooo   ooooooooooooooooooooooo...ooooooooooXX        .OOOOOOOOOoo",
"...ooooooooooooooooo...oooooooooooooooo   ooooooooooooooooooooooo...ooooooooooXX      XXXOOOOOOooooo",
"...ooooooooooooooooo...oooooooooooooooo   ooooooooooooooooooooooo...ooooooooooXX...XXXXXOOOOoooooooo",
"...ooooooooooooooooo...oooooooooooooooo   ooooooooooooooooooooooX...oooooooooooX   XXXXXOooooooooooo",
"...ooooooooooooooooo...oooooooooooooooo...ooooooooooooooooooooooX...oooooooooooX   XXXXXoooooooooooo",
"...ooooooooooooooooo...oooooooooooooooo...ooooooooooooooooooooooX...oooooooooooo   XXXoooooooooooooo",
"...ooooooooooooooooo...oooooooooooooooo   ooooooooooooooooooooooX...Xooooooooooo...XXXoooooooooooooo",
"...ooooooooooooooooo...oooooooooooooooo   ooooooooooooooooooooXXX   Xooooooooooo...OOOoooooooooooooo",
"...ooooooooooooooooo...oooooooooooooooo   ooooooooooooooooooooXXX   XXoooooooooo...OOOoooooooooooooo",
"...ooooooooooooooooo...oooooooooooooooo   ooooooooooooooooooXXXXX   XXoooooooooo...OOOoooooooooooooo",
"...ooooooooooooooooo...oooooooooooooooo   ooooooooooooooooXXXXXXX   XXXooooooooo...ooooooooooooooooo",
"...ooooooooooooooooo...oooooooooooooooo      ........        .      XXXooooooooo...ooooooooooooooooo",
"...ooooooooooooooooo...oooooooooooooooo      ........        .      XXXooooooooo...ooooooooooooooooo",
"...ooooooooooooooooo...oooooooooooooooo      ........        .      XXXooooooooo...ooooooooooooooooo",
"...ooooooooooooooooo...oooooooooooooooo...OOOOOOOOOOOOOOOOOOXXXXX   XXXXoooooooo...ooooooooooooooooo",
"...ooooooooooooooooo...oooooooooooooooo...OOOOOOOOOOOOOOOOOOOXXXX   XXXXoooooooo...ooooooooooooooooo",
"...ooooooooooooooooo...oooooooooooooooo...OOOOOOOOOOOOOOOOOOOXXXX   XXoooooooooo...ooooooooooooooooo",
"...ooooooooooooooooo...oooooooooooooooo...OOOooooooooooooooooXXXX   XXoooooooooo...ooooooooooooooooo",
"...ooooooooooooooooo...oooooooooooooooo...OOOooooooooooooooooXXXX   XXoooooooooo...ooooooooooooooooo",
"...ooooooooooooooooo...oooooooooooooooo...OOOooooooooooooooooooXX   oooooooooooo...ooooooooooooooooo",
"...ooooooooooooooooo...oooooooooooooooo...ooooooooooooooooooooooo   oooooooooooo...ooooooooooooooooo",
"...ooooooooooooooooo...oooooooooooooooo...ooooooooooooooooooooooo   oooooooooooo...ooooooooooooooooo",
"...ooooooooooooooooo...oooooooooooooooo...ooooooooooooooooooooooo   oooooooooooo...ooooooooooooooooo",
"...ooooooooooooooooo...OOOooooooooooooo...ooooooooooooooooooooooo...oooooooooooo...ooooooooooooooooo",
"...ooooooooooooooooo...OOOooooooooooooo...ooooooooooooooooooooooo...oooooooooooo...ooooooooooooooooo",
"...ooooooooooooooooo...OOOooooooooooooo...ooooooooooooooooooooooo...oooooooooooo...ooooooooooooooooo",
"...ooooooooooooooooo...OOOooooooooooooo...ooooooooooooooooooooooo...oooooooooooo...ooooooooooooooooo",
"...ooooooooooooooooo   OOOooooooooooooo...ooooooooooooooooooooooo...oooooooooooo...ooooooooooooooooo",
"...ooooooooooooooooo   OOOooooooooooooo...ooooooooooooooooooooooo...oooooooooooo...ooooooooooooooooo",
"...ooooooooooooooooo   OOOooooooooooooo...ooooooooooooooooooooooo...oooooooooooo...ooooooooooooooooo",
"...ooooooooooooooooo   OOOooooooooooooo   ooooooooooooooooooooooo...oooooooooooo...ooooooooooooooooo",
"...ooooooooooooooooo   OOOooooooooooooo   ooooooooooooooooooooooo...oooooooooooo...ooooooooooooooooo",
"...ooooooooooooooooo   OOOOOOoooooooooo   ooooooooooooooooooooooo...oooooooooooo...ooooooooooooooooo",
"...ooooooooooooooooo   OOOOOOOOOooooooo   ooooooooooooooooooooooo...oooooooooooo...ooooooooooooooooo",
"...ooooooooooooooooo      OOOOOOOOOoooo   ooooooooooooooooooooooo...oooooooooooo...ooooooooooooooooo",
"...ooooooooooooooooo      ...OOOOOOOOOO...ooooooooooooooooooooooo...oooooooooooo...ooooooooooooooooo",
"...ooooooooooooooooo      ......OOOOOOO...ooooooooooooooooooooooo...oooooooooooo...ooooooooooooooooo",
"...ooooooooooooooooo   ooo.........OOOO...ooooooooooooooooooooooo...oooooooooooo...ooooooooooooooooo",
"...ooooooooooooooooo   oooooo.............ooooooooooooooooooooooo...oooooooooooo...ooooooooooooooooo",
"...ooooooooooooooooo   Xoooooooo..........ooooooooooooooooooooooo...oooooooooooo...ooooooooooooooooo",
"...ooooooooooooooooo   XXoooooooooo.......ooooooooooooooooooooooo...oooooooooooo   ooooooooooooooooo",
"...ooooooooooooooooo...XXoooooooooooooo...ooooooooooooooooooooooo...oooooooooooo   ooooooooooooooooo",
"...ooooooooooooooooX   XXoooooooooooooo...ooooooooooooooooooooooo...oooooooooooo   ooooooooooooooooo",
"...ooooooooooooooooX   XXXooooooooooooo...ooooooooooooooooooooooo.......   ...     ooooooooooooooooo",
"   oooooooooooooooXX   XXXooooooooooooo...ooooooooooooooooooooooo.......   ...     ooooooooooooooooo",
"   oooooooooooooooXX...XXXooooooooooooo...ooooooooooooooooooooooo.......   ...     ooooooooooooooooo",
"   OOOooooooooooooXX...XXXooooooooooooo...ooooooooooooooooooooooo...OOOOOOOOOOOO   ooooooooooooooooo",
"   OOOoooooooooooXXX...XXXooooooooooooo...ooooooooooooooooooooooo...OOOOOOOOOOOO   ooooooooooooooooo",
"   OOOoooooooooooXXX...XXoooooooooooooo...ooooooooooooooooooooooo...OOOOOOOOOOOO   ooooooooooooooooo",
"   OOOoooooooooooXXX...XXoooooooooooooo...ooooooooooooooooooooooo...oooooooooooo   ooooooooooooooooo",
"   OOOoooooooooooXXX...Xooooooooooooooo...ooooooooooooooooooooooo...oooooooooooo   ooooooooooooooooo",
"   OOOooooooooooooXX...oooooooooooooooo...ooooooooooooooooooooooo...oooooooooooo   ooooooooooooooooo",
"   OOOooooooooooooXX...oooooooooooooooo...ooooooooooooooooooooooo...oooooooooooo   ooooooooooooooooo",
"   OOOoooooooooooooX...oooooooooooooooo...ooooooooooooooooooooooo...oooooooooooo   ooooooooooooooooo",
"   OOOoooooooooooooX...oooooooooooooooo...ooooooooooooooooooooooo...oooooooooooo   ooooooooooooooooo",
"   OOOoooooooooooooX...oooooooooooooooo...ooooooooooooooooooooooo...oooooooooooo   ooooooooooooooooo",
"   OOOoooooooooooooo...oooooooooooooooo...ooooooooooooooooooooooo...oooooooooooo   ooooooooooooooooo",
"   OOOoooooooooooooo...oooooooooooooooo...ooooooooooooooooooooooo...oooooooooooo   ooooooooooooooooo",
"   OOOoooooooooooooo...oooooooooooooooo...ooooooooooooooooooooooo...oooooooooooo   ooooooooooooooooo"
};
