/* XPM */
static char *bfcd5ebfb3ea428697dc597a8a390523WiXSrAFJeebL4JKr[] = {
/* columns rows colors chars-per-pixel */
"100 100 16 1 ",
"  c black",
". c #131313",
"X c gray10",
"o c #2C2C2C",
"O c #5E0606",
"+ c #74614D",
"@ c #8D0707",
"# c #C10909",
"$ c #A16331",
"% c #BC7236",
"& c #977E64",
"* c #E78E47",
"= c #D29E6A",
"- c #F1AD77",
"; c #C7A684",
": c #F1C9A0",
/* pixels */
"&&&;;;;;;;;;;;;;;;;;&&&;;;;;;;;;;;;;;;;&&&;;;;;;;;;;;;;;;;;;;;;;;&&&;;;;;;;;;;;;&&&;;;;;;;;;;;;;;;;;",
"&&&;;;;;;;;;;;;;;;;;&&&;;;;;;;;;;;;;;;;&&&;;;                        ;;;;;;;;;;;&&&;;;;;;;;;;;;;;;;;",
"&&&;;;;;;;;;;;;;;;;;&&&;;;;;;;;;;;;;;;;&&&;;;                        ;;;;;;;;;;;&&&;;;;;;;;;;;;;;;;;",
"&&&;;;;;;;;;;;;;;;;;&&&;;;;;;;;;;;;;;;;&&&;;;                        ;;;;;;;;;;;&&&;;;;;;;;;;;;;;;;;",
"&&&;;;;;;;;;;;;;;;;;&&&;;;;;;;;;;;;;;;;      OOOOOOOOOOOOOOOOOOOOOOOO   ;;;;;;;;&&&;;;;;;;;;;;;;;;;;",
"&&&;;;;;;;;;;;;;;;;;&&&;;;;;;;;;;;;;;;;      OOO@@@@@@@@@@@@@@@@@@@@O   ;;;;;;;;&&&;;;;;;;;;;;;;;;;;",
"&&&;;;;;;;;;;;;;;;;;&&&;;;;;;;;;;;;;;;;      O@@@@@@@@@@@@@@@@@@@@@@@   ;;;;;;;;&&&;;;;;;;;;;;;;;;;;",
"&&&;;;;;;;;;;;;;;;;;&&&;;;;;;;;;;;;;   OOOOOO########################   ;;;;;;;;&&&;;;;;;;;;;;;;;;;;",
"&&&;;;;;;;;;;;;;;;;;&&&;;;;;;;;;;;;;   OOO@@@########################   ;;;;;;;;&&&;;;;;;;;;;;;;;;;;",
"&&&;;;;;;;;;;;;;;;;;&&&;;;;;;;;;;;;;   OOO@@@########################   ;;;;;;;;&&&;;;;;;;;;;;;;;;;;",
"&&&;;;;;;;;;;;;;;;;;&&&;;;;;;;;;;      O@@@@@###########################   ;;;;;&&&;;;;;;;;;;;;;;;;;",
"&&&;;;;;;;;;;;;;;;;;&&&;;;;;;;;;;      O@@@@@###########################   ;;;;;&&&;;;;;;;;;;;;;;;;;",
"&&&;;;;;;;;;;;;;;;;;&&&;;;;;;;;;;      O@@@@@###########################   ;;;;;&&&;;;;;;;;;;;;;;;;;",
"&&&;;;;;;;;;;;;;;;;;&&&;;;;;;;      OOO@@@######@@@@@@@@@@@@@@@@@@@@@@@@   ;;;;;&&&;;;;;;;;;;;;;;;;;",
"&&&;;;;;;;;;;;;;;;;;&&&;;;;;;;      O@@@@@######@@@@@@@@@@@@@@@@@@@@@@@@   ;;;;;&&&;;;;;;;;;;;;;;;;;",
"&&&;;;;;;;;;;;;;;;;=&&&;;;;;;;      O@@@@@######OOOOOOOOOOOOOOOOOOOOOOOO   ;;;;;&&&;;;;;;;;;;;;;;;;;",
"&&&;;;;;;;;;;;;;;;;=+++;;;;;;;   OOO@@@######@@@                           ;;;;;&&&;;;;;;;;;;;;;;;;;",
"&&&;;;;;;;;;;;;;;;;=+++;;;;;;;   OOO@@@######@@@                           ;;;;;&&&;;;;;;;;;;;;;;;;;",
"&&&;;;;;;;;;;;;;;;==+++=;;;;;;   OOO@@@######@@@                           ;;;;;&&&;;;;;;;;;;;;;;;;;",
"&&&;;;;;;;;;;;;;====+++=;;;;;;   OOO@@@###      %%%%%%%%%%%%%%%%%%%%%      ;;;;;&&&;;;;;;;;;;;;;;;;;",
"&&&;;;;;;;;;;;======+++==;;;;;   OOO@@@###      %%%%%%%%%%%%%%%%%%%%%      ;;;;;&&&;;;;;;;;;;;;;;;;;",
"&&&;;;;;;;;;;;======+++==;;;;;   OOO@@@###      %%*******************      ;;;;;&&&;;;;;;;;;;;;;;;;;",
"&&&&&&&&&&&+++++&&+++++==;;;;;   OOO@@@###   %%%%%*------------------      ;;;;;&&&;;;;;;;;;;;;;;;;;",
"&&&&&&&&&&&+++++&&+++++==;;;;;   OOO@@@###   %%****------------------      ;;;;;&&&;;;;;;;;;;;;;;;;;",
"&&&&&&&&&&&+++++&&+++++===;;;;   OOO@@@###   %%****------------------      ;;;;;&&&;;;;;;;;;;;;;;;;;",
"&&&::::::::::=======+++===;;;;   OOO@@@###   %%*$$$$$$$$$----------$$      ;;;;;&&&;;;;;;;;;;;;;;;;;",
"&&&:::::::::::======+++===;;;;   OOO@@@###   %%*$$$$$$$$$----------$$      ;;;;;&&&;;;;;;;;;;;;;;;;;",
"&&&:::::::::::======+++===;;;;   OOO@@@###   %%*$$$$$$$$$----------$$      ;;;;;&&&;;;;;;;;;;;;;;;;;",
"&&&;;;;;;;;;;;;;;===&&&===;;;;   OOO@@@###   %%****   %%%----------        ;;;;;&&&;;;;;;;;;;;;;;;;;",
"&&&;;;;;;;;;;;;;;===&&&==;;;;;   OOO@@@###   %%****   %**----------        ;;;;;+++;;;;;;;;;;;;;;;;;",
"&&&;;;;;;;;;;;;;;;;=&&&;;;;;;;   OOO@@@###   %%****   %**----------        ;;;;;+++;;;;;;;;;;;;;;;;;",
"&&&;;;;;;;;;;;;;;;;=&&&;;;;;;;;;;   O@@###   %%****------------------      ;;;;;+++;;;;;;;;;;;;;;;;;",
"&&&;;;;;;;;;;;;;;;;=&&&;;;;;;;;;;   O@@###   %%****------------------      ;;;;;&&&;;;;;;;;;;;;;;;;;",
"&&&;;;;;;;;;;;;;;;;=&&&;;;;;;;;;;   O@@###   %%****------------------      ;;;;=&&&;;;;;;;;;;;;;;;;;",
"&&&;;;;;;;;;;;;;;;;;&&&;;;;;;;;;;   O@@###                                 ;;;;=&&&;;;;;;;;;;;;;;;;;",
"&&&;;;;;;;;;;;;;;;;;&&&;;;;;;;;;;   O@@###                                 ;;;;=+++=;;;;;;;;;;;;;;&&",
"&&&;;;;;;;;;;;;;;;;;&&&;;;;;;;;;;   O@@###                                 ;;;;=+++==;;;;;;;;;;&&&&&",
"&&&;;;;;;;;;;;;;;;;;&&&;;;;;;;      O@@###   ........................      ;;;;=+++===;;;;;;&&&&&&&&",
"&&&;;;;;;;;;;;;;;;;;&&&;;;;;;;      O@@###   ...XXXXXXXXXXXXXXXXXXXX.      ;;;;=+++===;;;&&&&&&&&&::",
"&&&;;;;;;;;;;;;;;;;;&&&;;;;;;;      O@@###   ...XXXXXXXXXXXXXXXXXXXX.      ;;;==+++===++&&&&&&&:::::",
"&&&;;;;;;;;;;;;;;;;;&&&;;;;   OOOOOOO@@######   ...XXXooooooooooooXX.   ;;;;;;==++++++++&&&&::::::::",
"&&&;;;;;;;;;;;;;;;;;&&&;;;;   OOO@@@@@@######   ...XXXooooooooooooXX.   ;;;;;;==++++++++&:::::::::;;",
"&&&;;;;;;;;;;;;;;;;;&&&;;;;   OOO@@@@@@######   ...XXXooooooooooooXX.   ;;;;;;==++++++===::::::;;;;;",
"&&&;;;;;;;;;;;;;;;;;&&&;   OOO@@@###OOOOOO###   ...XXXooooooooooooooo   ;;;;;;==&&&=====::::;;;;;;;;",
"&&&;;;;;;;;;;;;;;;;;&&&;   OOO@@@###@@@OOO###   ...XXXooooooooooooooo   ;;;;;;;=+++=====:;;;;;;;;;;;",
"&&&;;;;;;;;;;;;;;;;;&&&;   OOO@@@###@@@OOO###   ...XXXooooooooooooooo   ;;;;;;;=+++=====;;;;;;;;;;;;",
"&&&;;;;;;;;;;;;;;;;;&   OOO@@@#########@@OOOO      ...XXXXXXXXXXX.   ;;;;;;;;;;;+++===;;;;;;;;;;;;;;",
"&&&;;;;;;;;;;;;;;;;;&   OOO@@@#########@@@@OO      ...XXXXXXXXXXX.   ;;;;;;;;;;;&&&===;;;;;;;;;;;;;;",
"&&&;;;;;;;;;;;;;;;;;&   OOO@@@#########@@@@OO      ...............   ;;;;;;;;;;;&&&:::;;;;;;;;;;;;;;",
"&&&;;;;;;;;;;;;;;;   OOO@@@###   O@#######@@O   OOO               ...   ;;;;;;;;&&&:::;;;;;;;;;;;;;;",
"&&&;;;;;;;;;;;;;;;   O@@@@@###   O@@######@@O   OOO               ...   ;;;;;;;;&&&:::;;;;;;;;;;;;;;",
"&&&;;;;;;;;;;;;;;;   O@@@@@###   O@@@#####@@O   @@@               ...   ;;;;;;;;&&&;;;;;;;;;;;;;;;;;",
"&&&;;;;;;;;;;;;;;;   O@@###@@O   OOO@@@@@@@@OOOO@@@@@@OOO   .........O@@   ;;;;;&&&;;;;;;;;;;;;;;;;;",
"&&&;;;;;;;;;;;;;;;   O@@###@@O   OOO@@@@@@@@@@@@@@@@@@OOO   XXXXXXXXXO@@   ;;;;;&&&;;;;;;;;;;;;;;;;;",
"&&&;;;;;;;;;;;;;;;   O@@###OOO   OOOOOOOOOOOOOO@@@@@@@OOO   XXXXXXXXXO@@   ;;;;;&&&;;;;;;;;;;;;;;;;;",
"&&&;;;;;;;;;;;;;;;   O@@###                     @@@@@O   XXXXXX   OOOO@@   ;;;;;&&&;;;;;;;;;;;;;;;;;",
"&&&;;;;;;;;;;;;;;;   O@@###                     @@@@@O   XXXXXX   OOOO@@   ;;;;;&&&;;;;;;;;;;;;;;;;;",
"&&&;;;;;;;;;;;;;;;   O@@###                     OOOOOO   XXXXXX   OOOO@@   ;;;;;&&&;;;;;;;;;;;;;;;;;",
"&&&;;;;;;;;;;;;;;;   O@@######   ...ooooooooo...      ..XXXX   OOO   O@@   ;;;;;&&&;;;;;;;;;;;;;;;;;",
"&&&;;;;;;;;;;;;;;;   O@@######   .XXoooooooooXX.      ..XXXX   O@@   O@@   ;;;;;&&&;;;;;;;;;;;;;;;;;",
"&&&;;;;;;;;;;;;;;;   O@@######   .XXoooooooooXX.      ..XXXX   O@@   O@@   ;;;;;&&&;;;;;;;;;;;;;;;;;",
"&&&;;;;;;;;;;;;;;;   OOO@@@######      oooooooooX..   ..X   OOO###   O@@   ;;;;;&&&;;;;;;;;;;;;;;;;;",
"&&&;;;;;;;;;;;;;;;   OOO@@@######      oooooooooX..   ..X   O@@###   O@@   ;;;;;&&&;;;;;;;;;;;;;;;;;",
"&&&;;;;;;;;;;;;;;;   OOO@@@######      oooooooooX..   ..X   O@@###   O@@   ;;;;;&&&;;;;;;;;;;;;;;;;;",
"&&&;;;;;;;;;;;;;;;;;&   OOO@@@@@@------   ooooooX..      OOO######   O@@   ;;;;;&&&;;;;;;;;;;;;;;;;;",
"&&&;;;;;;;;;;;;;;;;;&   OOO@@@@@@------   ooooooX..      O@@######   O@@   ;;;;;&&&;;;;;;;;;;;;;;;;;",
"&&&;;;;;;;;;;;;;;;;;&   OOOOOOOOO------   ooooooX..      O@@######   O@@   ;;;;;&&&;;;;;;;;;;;;;;;;;",
"&&&;;;;;;;;;;;;;;;;;&&&:         %%%***   XXXXXXX..   OOO######@@@   O@@   ;;;;;&&&;;;;;;;;;;;;;;;;;",
"&&&;;;;;;;;;;;;;;;;;+++:         %%%***   .........   O@@######@@@   O@@   ;;;;;&&&;;;;;;;;;;;;;;;;;",
"&&&;;;;;;;;;;;;;;;;;+++:         %%%%%%   .........   O@@######@@@   O@@   ;;;;;&&&;;;;;;;;;;;;;;;;;",
"&&&;;;;;;;;;;;;;;;;;+++:::;;;;                                       %%%*--   ;;&&&;;;;;;;;;;;;;;;;;",
"&&&;;;;;;;;;;;;;;;;;+++:::;;;;                                       %%%*--   ;;&&&;;;;;;;;;;;;;;;;;",
"&&&;;;;;;;;;;;;;;;;;+++:::;;;;                                       %%%*--   ;;&&&;;;;;;;;;;;;;;;;;",
"&&&;;;;;;;;;;;;;;;;;+++::::::;   O@@###OOOOOOOOOOOOOOOOOO######OOOOOO   %*-   ;;&&&;;;;;;;;;;;;;;;;;",
"&&&;;;;;;;;;;;;;;;;;+++:::::::   O@@###@@@@@@OOOOOOOOOOOO######@@@OOO   %*-   ;;&&&;;;;;;;;;;;;;;;;;",
"&&&;;;;;;;;;;;;;;;;;++++++::::   O@@###@@@@@@OOOOOOOOOOOO######@@@OOO   %*-   ;;&&&;;;;;;;;;;;;;;;;;",
"&&&;;;;;;;;;;;;;;;;;++++++&&&:   O@@#########            ############   %*-   ;;&&&;;;;;;;;;;;;;;;;;",
"&&&;;;;;;;;;;;;;;;;;++++++&&&&   O@@#########            ############   %*-   ;;&&&;;;;;;;;;;;;;;;;;",
"&&&;;;;;;;;;;;;;;;;;+++;;;&&&&   O@@#########            ############   %*-   ;;&&&;;;;;;;;;;;;;;;;;",
"&&&;;;;;;;;;;;;;;;;;+++;;;;;;&   O@@######   ;;;;;;;;;;;;   O@@######      ;;;;;&&&;;;;;;;;;;;;;;;;;",
"&&&;;;;;;;;;;;;;;;;;+++=;;;;;;   O@@######   ;;;;;;;;;;;;   O@@######      ;;;;;&&&;;;;;;;;;;;;;;;;;",
"&&&;;;;;;;;;;;;;;;;;+++===;;;;   O@@######   ;;;;;;;;;;;;   OOO######      ;;;;;+++;;;;;;;;;;;;;;;;;",
"&&&;;;;;;;;;;;;;;;;;&&&===;;;;   OOO@@@   ;;;;;;;;;;;;;;;;;;   O@@###   ;;;;;;;;+++;;;;;;;;;;;;;;;;;",
"&&&;;;;;;;;;;;;;;;;=+++===;;;;   OOO@@@   ;;;;;;;;;;;;;;;;;;   O@@###   ;;;;;;;;+++;;;;;;;;;;;;;;;;;",
"&&&;;;;;;;;;;;;;;;;=+++=====;;   OOOOOO   ;;;;;;;;;;;;;;;;;;   O@@###   +++&&&+++++;;;;;;;;;;;;;;;;;",
"+++;;;;;;;;;;;;;;;==+++=====;;   OOO   &&&;;;;;;;;;;;;;;;;;;   OOO@@@   +++&&&+++++;;;;;;;;;;;;;;;;;",
"+++;;;;;;;;;;;;;;;==&&&=====;;   OOO   &&&;;;;;;;;;;;;;;;;;;   OOO@@@   +++&&&+++++;;;;;;;;;;;;;;;;;",
"+++:::;;;;;;;;;;;;==&&&=====;;   OOO   &&&;;;;;;;;;;;;;;;;;;   OOOOOO   ::::::::+++;;;;;;;;;;;;;;;;;",
"+++:::;;;;;;;;;;;===&&&=====;;   ooo   &&&;;;;;;;;;;;;;;;;;;   ooo   :::::::::::+++;;;;;;;;;;;;;;;;;",
"+++:::;;;;;;;;;;;===&&&==;;;;;   ooo   &&&;;;;;;;;;;;;;;;;;;   ooo   :::::::::::+++;;;;;;;;;;;;;;;;;",
"+++:::;;;;;;;;;;;===&&&==;;;;;   ooo   &&&;;;;;;;;;;;;;;;;;;   ooo   ;;;;;;;;;;;+++;;;;;;;;;;;;;;;;;",
"+++:::;;;;;;;;;;;===&&&=;;;   oooXX.   &&&;;;;;;;;;;;;;;;;;;   .XXooo      ;;;;;+++;;;;;;;;;;;;;;;;;",
"+++:::;;;;;;;;;;;;==&&&;;;;   oooXX.   &&&;;;;;;;;;;;;;;;;;;   .XXooo      ;;;;;+++;;;;;;;;;;;;;;;;;",
"+++:::;;;;;;;;;;;;==&&&;;;;   oooXX.   &&&;;;;;;;;;;;;;;;;;;   .XXooo      ;;;;;+++;;;;;;;;;;;;;;;;;",
"+++:::;;;;;;;;;;;;;=&&&;   XXXXXX...   &&&;;;;;;;;;;;;;;;;;;   ...XXXXXX   ;;;;;+++;;;;;;;;;;;;;;;;;",
"+++:::;;;;;;;;;;;;;=&&&;   XXXXXX...   &&&;;;;;;;;;;;;;;;;;;   ...XXXXXX   ;;;;;+++;;;;;;;;;;;;;;;;;",
"+++:::;;;;;;;;;;;;;=&&&;   .........   &&&;;;;;;;;;;;;;;;;;;   .........   ;;;;;+++;;;;;;;;;;;;;;;;;",
"+++:::;;;;;;;;;;;;;;&&&;               &&&;;;;;;;;;;;;;;;;;;               ;;;;;+++;;;;;;;;;;;;;;;;;",
"+++:::;;;;;;;;;;;;;;&&&;               &&&;;;;;;;;;;;;;;;;;;               ;;;;;+++;;;;;;;;;;;;;;;;;",
"+++:::;;;;;;;;;;;;;;&&&;               &&&;;;;;;;;;;;;;;;;;;               ;;;;;+++;;;;;;;;;;;;;;;;;"
};
